<?xml version="1.0" encoding="UTF-8"?><svg id="Layer_1" xmlns="http://www.w3.org/2000/svg" viewBox="0 0 178.05 190.12"><defs><style>.cls-1{fill:#404042;}.cls-1,.cls-2{stroke-width:0px;}.cls-2{fill:#fcb817;}</style></defs><path class="cls-1" d="m2.1,44.14h20.3v16.76c4.53-11.63,14.59-19.12,29.57-19.12,15.77,0,26.02,7.1,31.54,18.33,6.11-11.04,16.95-18.33,32.92-18.33,24.25,0,36.47,16.16,36.47,40.8v63.28h-21.09v-59.92c0-15.57-6.7-25.63-21.09-25.63s-22.67,9.46-22.67,26.41v59.14h-21.09v-59.92c0-15.57-6.7-25.63-20.9-25.63s-22.87,9.46-22.87,26.41v59.14H2.1V44.14Z"/><rect class="cls-2" x="2.1" y="1.95" width="151.17" height="21.09"/><rect class="cls-2" x="2.1" y="167.31" width="151.17" height="21.09"/><polygon class="cls-1" points="159.57 1.72 159.57 2.88 162.3 2.88 162.3 10.07 163.61 10.07 163.61 2.88 166.35 2.88 166.35 1.72 159.57 1.72"/><polygon class="cls-1" points="174.22 1.72 171.6 8.55 168.97 1.72 167.24 1.72 167.24 10.07 168.44 10.07 168.44 3.27 171.09 10.07 172.11 10.07 174.75 3.27 174.75 10.07 175.95 10.07 175.95 1.72 174.22 1.72"/></svg>